<?xml version="1.0" encoding="utf-8"?>
<!-- Generator: Adobe Illustrator 23.0.5, SVG Export Plug-In . SVG Version: 6.00 Build 0)  -->
<svg version="1.1" id="Layer_1" xmlns="http://www.w3.org/2000/svg" xmlns:xlink="http://www.w3.org/1999/xlink" x="0px" y="0px"
	 viewBox="0 0 20 20" style="enable-background:new 0 0 20 20;" xml:space="preserve">
<g id="Change_password">
	<path d="M18.9,5.4c-0.1-0.2-0.4-0.3-0.6-0.2c-0.2,0.1-0.3,0.4-0.2,0.6c1.9,3.5,1.2,7.9-1.6,10.7c-3.6,3.6-9.4,3.6-12.9,0
		c-0.2-0.2-0.4-0.2-0.6,0c-0.1,0.1-0.1,0.2-0.1,0.3v2.4c0,0.2,0.2,0.4,0.4,0.4c0.2,0,0.4-0.2,0.4-0.4v-1.5
		c4.3,3.5,10.6,2.9,14.1-1.4C20.3,13.2,20.7,8.9,18.9,5.4z"/>
	<path d="M3.5,3.5C7.1,0,12.9,0,16.5,3.5c0.2,0.2,0.4,0.2,0.6,0c0.1-0.1,0.1-0.2,0.1-0.3V0.8c0-0.2-0.2-0.4-0.4-0.4
		s-0.4,0.2-0.4,0.4v1.5C12.4-1,6.6-0.7,2.9,2.9C-0.2,6-0.9,10.7,1.1,14.6c0.1,0.2,0.4,0.3,0.6,0.2c0.2-0.1,0.3-0.4,0.2-0.6
		C0,10.7,0.7,6.3,3.5,3.5z"/>
	<path d="M4.5,9.9v4.7c0,0.6,0.5,1.1,1.1,1.1h8.7c0.6,0,1.1-0.5,1.1-1.1V9.9c0-0.6-0.5-1.1-1.1-1.1H5.6C5,8.8,4.5,9.3,4.5,9.9z
		 M13.1,11.4c0.5,0,0.9,0.4,0.9,0.9c0,0.5-0.4,0.9-0.9,0.9c-0.5,0-0.9-0.4-0.9-0.9c0,0,0,0,0,0C12.2,11.8,12.6,11.4,13.1,11.4z
		 M10,11.4c0.5,0,0.9,0.4,0.9,0.9s-0.4,0.9-0.9,0.9c-0.5,0-0.9-0.4-0.9-0.9c0,0,0,0,0,0C9.1,11.8,9.5,11.4,10,11.4z M6.9,11.4
		c0.5,0,0.9,0.4,0.9,0.9s-0.4,0.9-0.9,0.9S6,12.8,6,12.3c0,0,0,0,0,0C6,11.8,6.4,11.4,6.9,11.4z"/>
	<path d="M13.7,7.9V6.4c0-2.1-1.7-3.7-3.7-3.7c-2.1,0-3.7,1.7-3.7,3.7v1.5h0.8V6.4c0-1.6,1.3-2.9,2.9-2.9c1.6,0,2.9,1.3,2.9,2.9v1.5
		H13.7z"/>
</g>
</svg>
