<?xml version="1.0" encoding="utf-8"?>
<!-- Generator: Adobe Illustrator 23.0.5, SVG Export Plug-In . SVG Version: 6.00 Build 0)  -->
<svg version="1.1" id="Layer_1" xmlns="http://www.w3.org/2000/svg" xmlns:xlink="http://www.w3.org/1999/xlink" x="0px" y="0px"
	 viewBox="0 0 20 20" style="enable-background:new 0 0 20 20;" xml:space="preserve">
<title></title>
<path d="M14.7,20c-0.8,0-1.6-0.1-2.3-0.3c-2.6-0.6-5.3-2.2-7.6-4.5s-3.9-5-4.5-7.6C-0.3,4.9,0.1,2.6,1.7,1l0.4-0.4
	c0.8-0.8,2.1-0.8,3,0l2.5,2.5c0.8,0.8,0.8,2.1,0,3L6.1,7.5c0.7,1.2,1.7,2.5,2.8,3.6s2.4,2.1,3.6,2.8l1.5-1.5c0.8-0.8,2.1-0.8,3,0
	c0,0,0,0,0,0l2.5,2.5c0.8,0.8,0.8,2.1,0,3L19,18.4C17.9,19.4,16.4,20,14.7,20z"/>
<path d="M15.5,11c-0.4,0-0.7-0.3-0.7-0.7l0,0c0-2.7-2.2-4.9-4.9-4.9C9.4,5.3,9.1,5,9.1,4.6c0-0.4,0.3-0.7,0.7-0.7l0,0
	c3.5,0,6.4,2.9,6.4,6.4C16.2,10.7,15.9,11,15.5,11C15.5,11,15.5,11,15.5,11z"/>
<path d="M18.6,11c-0.4,0-0.7-0.3-0.7-0.7l0,0c0-4.5-3.6-8.1-8.1-8.1c-0.4,0-0.7-0.3-0.7-0.7s0.3-0.7,0.7-0.7l0,0
	c5.3,0,9.6,4.3,9.6,9.6C19.4,10.7,19.1,11,18.6,11L18.6,11z"/>
</svg>
