<?xml version="1.0" encoding="utf-8"?>
<!-- Generator: Adobe Illustrator 23.0.5, SVG Export Plug-In . SVG Version: 6.00 Build 0)  -->
<svg version="1.1" id="Layer_1" xmlns="http://www.w3.org/2000/svg" xmlns:xlink="http://www.w3.org/1999/xlink" x="0px" y="0px"
	 viewBox="0 0 153.8 200" style="enable-background:new 0 0 153.8 200;" xml:space="preserve">
<style type="text/css">
	.st0{fill:#4A4A4A;}
</style>
<g>
	<path class="st0" d="M150.4,135.1l-10.6-14.5V79.9c0.3-32.2-23.3-59.6-55.2-64V7.7c0-4.2-3.4-7.7-7.7-7.7c-4.2,0-7.7,3.4-7.7,7.7
		v8.2c-31.9,4.4-55.5,31.8-55.2,64v40.7L3.4,135.1l0,0c-4,5.4-4.5,12.6-1.5,18.6c2.9,5.8,8.9,9.5,15.4,9.5h119.1
		c6.5,0,12.5-3.7,15.4-9.5C154.9,147.7,154.4,140.5,150.4,135.1z"/>
	<path class="st0" d="M76.9,200c14-0.1,26.2-9.5,29.7-23.1H47.2C50.7,190.5,62.9,199.9,76.9,200z"/>
</g>
</svg>
