<?xml version="1.0" encoding="utf-8"?>
<!-- Generator: Adobe Illustrator 23.0.5, SVG Export Plug-In . SVG Version: 6.00 Build 0)  -->
<svg version="1.1" id="Icons" xmlns="http://www.w3.org/2000/svg" xmlns:xlink="http://www.w3.org/1999/xlink" x="0px" y="0px"
	 viewBox="0 0 20 20" style="enable-background:new 0 0 20 20;" xml:space="preserve">
<path d="M19.7,2.3c-0.2-0.1-0.4-0.2-0.6-0.1c-3.1,1-6.2,0.2-8.6-2c-0.3-0.3-0.7-0.3-1,0c-2.4,2.2-5.5,3-8.6,2
	C0.7,2.1,0.5,2.1,0.3,2.3C0.1,2.4,0,2.6,0,2.9c0,11.2,4.9,14.9,9.7,17.1C9.8,20,9.9,20,10,20s0.2,0,0.3-0.1
	c4.8-2.1,9.7-5.9,9.7-17.1C20,2.6,19.9,2.4,19.7,2.3z M10.6,10.7v4.5H9.4v-4.5c-0.6-0.2-1.1-0.8-1.1-1.5c0-0.9,0.7-1.6,1.6-1.6
	s1.6,0.7,1.6,1.6C11.6,9.8,11.2,10.4,10.6,10.7z"/>
</svg>
